<?xml version="1.0" encoding="utf-8"?>
<!-- Svg Vector Icons : http://www.onlinewebfonts.com/icon -->
<!DOCTYPE svg PUBLIC "-//W3C//DTD SVG 1.1//EN" "http://www.w3.org/Graphics/SVG/1.1/DTD/svg11.dtd">
<svg version="1.1" xmlns="http://www.w3.org/2000/svg" xmlns:xlink="http://www.w3.org/1999/xlink" x="0px" y="0px" viewBox="0 0 1000 1000" enable-background="new 0 0 1000 1000" xml:space="preserve">
<metadata> Svg Vector Icons : http://www.onlinewebfonts.com/icon </metadata>
<g><path d="M990,513.1l-88.8-23.9v121.3c0,0.3,0.1,0.6,0.1,0.9c0,0.3-0.1,0.6-0.1,0.9v9l-1.1,2.2c-2.7,18.8-11.5,35.6-24.5,48.3l-0.5,1.1L635.2,881.7l-0.5,0.1c-10,10-23.7,16.3-39,16.3c-6.7,0-12.9-1.5-18.8-3.6l-1.5,0.3L148.8,753.1l-0.5-0.6c-21.8-7.1-37.8-26.3-40.3-49.9l-0.8-1V578.5L10,548.4l98.1-253.5l29.1,11.3l-26.3-13.9l364.9-190.4l424.4,127.8l1.3-0.3L990,513.1z M940.9,463.8l-39.8-122.1v111.2L940.9,463.8z M142.4,709.1l441,145.8V507.5L530,709.4l-387.5-120V709.1z M459.9,144.6L178.4,289l281.5,70.5V144.6z M155.4,317.5l-1.2-2.4l-14.1-7.5L55.4,526.4L505.9,666l60.8-229.7L155.4,317.5z M495.3,140.4v230.7l97.8,31.9l252.5-162.8L495.3,140.4z M865.4,274.2L618.6,432.3v418l246.8-223.3L865.4,274.2L865.4,274.2z"/></g>
</svg>